PSF_ID_stride4.mot
nRows=11
nColumns=38

name PSF_ID_stride4.mot
datacolumns 38
datarows 11
range 1.8200000000 1.8700000000
endheader
time	pelvis_tilt_moment	pelvis_list_moment	pelvis_rotation_moment	pelvis_tx_force	pelvis_ty_force	pelvis_tz_force	hip_flexion_r_moment	hip_adduction_r_moment	hip_rotation_r_moment	knee_angle_r_moment	ankle_angle_r_moment	subtalar_angle_r_moment	mtp_angle_r_moment	hip_flexion_l_moment	hip_adduction_l_moment	hip_rotation_l_moment	knee_angle_l_moment	ankle_angle_l_moment	subtalar_angle_l_moment	mtp_angle_l_moment	lumbar_extension_moment	lumbar_bending_moment	lumbar_rotation_moment	arm_flex_r_moment	arm_add_r_moment	arm_rot_r_moment	elbow_flex_r_moment	pro_sup_r_moment	wrist_flex_r_moment	wrist_dev_r_moment	arm_flex_l_moment	arm_add_l_moment	arm_rot_l_moment	elbow_flex_l_moment	pro_sup_l_moment	wrist_flex_l_moment	wrist_dev_l_moment
        1.8200000000	      -44.6557225647	       63.8073834768	       21.9246604251	       35.7632549347	      345.4575478317	       99.1875131014	       62.3273971088	        0.9191385456	        1.6431924621	       20.7294975234	        4.6571981639	       -0.6613103012	        0.2423777659	      -17.6068882987	      -25.5238713833	       -4.9891802666	        5.8032231419	       21.0710294220	       -7.0701514408	        0.2033348731	       29.1165510417	       29.6185853786	       -1.0496150278	       -5.2854029705	       -0.1606679524	        0.4650199904	        0.6949422588	       -0.0100641347	        0.0635006628	       -0.0178107768	       -5.1299045045	        1.2821050626	        1.2000314028	        0.8976275645	        0.0160814721	        0.1358340668	       -0.0163263092	
        1.8250000000	      -52.5716658621	       71.2228721740	       31.3276505457	       24.4152278824	      353.0368231554	       43.9188186215	       64.7799474669	        3.7265068984	        0.4594360913	       20.8338663119	        4.7225317120	       -0.5741971639	        0.2499866580	      -17.5742296998	      -45.3181603789	       -6.0936796354	       12.7259927983	       17.9607334284	       -4.6167174023	        0.2742408320	       35.0523398751	       29.1715621269	        2.6715843612	       -4.5607413217	        0.2789779405	        0.8307549874	        1.5676820984	       -0.0138235704	        0.1214916031	       -0.0803616276	       -5.4018039427	        1.2164809881	        0.9704428195	        1.6316639013	       -0.0090709271	        0.1211458021	       -0.0856574457	
        1.8300000000	      -55.4422358249	       57.8322394809	       42.4626857415	        9.2543815115	      258.0762640455	      -33.0919905967	       71.3428561528	        6.9996093355	       -0.6545819673	       21.5293185731	        4.7887114133	       -0.4984337525	        0.2548090901	      -44.2034349175	      -63.1307759757	      -11.0117045612	       12.2090583025	        5.2242064449	       -2.2068958898	        0.3246754398	       34.4970479347	       27.9498388311	        5.8883651914	       -3.3163032658	        0.6180060704	        1.0583630294	        2.2994502899	       -0.0193319552	        0.1624641023	       -0.1367197938	       -4.8704894654	        1.1753502238	        0.7023925476	        2.2531591835	       -0.0320042070	        0.1006123636	       -0.1482902518	
        1.8350000000	      -49.8972629033	       30.6417243341	       53.4292318648	       -5.8369212450	      105.8041960878	     -101.8648515964	       78.8948691380	       10.4599054658	       -1.6134068458	       22.7574531305	        4.8078302811	       -0.4331998020	        0.2544826904	      -83.4503513655	      -71.4328015690	      -19.5396012759	        8.2644269616	      -13.5126599042	       -1.3626737503	        0.3452104258	       29.8223864558	       25.5243631392	        8.3505575812	       -1.8796095323	        0.9094877360	        1.1919783614	        2.7662348367	       -0.0229746427	        0.1868939873	       -0.1751548552	       -3.9379717170	        1.0543014887	        0.3974049816	        2.6458042819	       -0.0502595968	        0.0740017420	       -0.1931472477	
        1.8400000000	      -35.5543834964	       -5.4399097475	       62.9673083582	      -18.8748406173	      -67.4985063953	     -127.1569353707	       85.1709262257	       13.8920401232	       -2.4104024755	       24.3796609179	        4.7880390584	       -0.3751929207	        0.2514260102	     -127.1235843407	      -70.6770647703	      -30.6722147814	        5.7438020671	      -34.1536011476	       -2.0110742035	        0.3408378655	       22.5031776405	       21.9999761716	        9.7082192170	       -0.5716355115	        1.1861722666	        1.2685278226	        3.0005871881	       -0.0247475484	        0.1985686542	       -0.1971846814	       -2.8761244816	        0.8249549122	        0.0858220683	        2.8438705292	       -0.0632184102	        0.0452108983	       -0.2210564239	
        1.8450000000	      -16.3161883318	      -33.8782141028	       68.3763375378	      -29.0974408383	     -211.1195157742	     -125.0048513182	       88.2166097223	       17.0753537509	       -3.1033984488	       26.0829459242	        4.7091581149	       -0.3197799564	        0.2448985106	     -161.0910770518	      -63.8598523192	      -40.9074069699	        7.1277575853	      -52.1117700610	       -4.2039765144	        0.3133470875	       20.0260157513	       18.6512789031	        9.8918340749	        0.3348618588	        1.4059490109	        1.2811569367	        3.1851433284	       -0.0271629831	        0.2007140838	       -0.2171256242	       -1.9188268232	        0.6568944527	       -0.0794610571	        3.0152485938	       -0.0714364742	        0.0352965200	       -0.2446446399	
        1.8500000000	        2.1653963105	      -49.7722094684	       70.6379255051	      -36.8615131521	     -307.7538259797	      -82.0436888435	       89.2452704403	       19.9186327289	       -3.7586729068	       27.6106957906	        4.5918101639	       -0.2632872898	        0.2377486523	     -181.6755339892	      -54.1607147542	      -48.1280474947	       21.4235979025	      -65.9974228632	       -6.3336223831	        0.2661981355	       21.9996851464	       16.3370964977	        8.6573146112	        0.8853016838	        1.5497383153	        1.2092724832	        3.4487622167	       -0.0351384490	        0.1958814468	       -0.2477159272	       -1.1070427365	        0.5982132672	       -0.1282708169	        3.2973391186	       -0.0766999642	        0.0395640577	       -0.2740620252	
        1.8550000000	       11.2733104471	      -40.4523578225	       67.3906004101	      -40.7253858412	     -304.9194935261	      -34.8029105600	       88.5639885063	       22.2084887649	       -4.5015126964	       28.6108302229	        4.4761477318	       -0.2005188182	        0.2326673720	     -177.6122003166	      -48.8585946723	      -46.2843332028	       45.2865792161	      -74.6298459170	       -5.5354543139	        0.2146463802	       31.5297864097	       17.4243765028	        5.9993546479	        1.0643368405	        1.4589780973	        0.9841974244	        4.0127747372	       -0.0534931692	        0.1817365020	       -0.3093207876	       -0.3171661862	        0.9022266322	        0.0804802401	        3.9002042494	       -0.0800895617	        0.0753282977	       -0.3275274078	
        1.8600000000	        9.9972441831	      -11.9718102350	       58.7840532459	      -39.5233423044	     -254.1323176562	       -5.0362648574	       87.5596127315	       23.8257838610	       -5.3869454043	       28.7314829420	        4.3769509010	       -0.1282691588	        0.2318799084	     -159.7603561194	      -49.5087335186	      -37.7792993867	       77.6961277055	      -80.4842565821	       -2.1819850495	        0.1646036776	       49.4869641116	       21.7775135556	        1.6335990698	        1.1282304028	        1.1096777090	        0.5231072815	        4.9603517262	       -0.0864422982	        0.1531922897	       -0.4107953362	        0.6223844028	        1.7425711969	        0.6237327895	        4.9157225922	       -0.0821328341	        0.1541181842	       -0.4111359203	
        1.8650000000	       -0.3323548451	       29.4034247832	       47.1938094173	      -31.1039164610	     -129.5181601167	       -1.7371694109	       87.1825787755	       24.3902341228	       -6.4283773781	       28.4097923678	        4.2907824545	       -0.0439858623	        0.2326293305	     -130.0849098165	      -55.6147085536	      -22.8656918911	      111.0751414919	      -86.4189142972	        3.4561245699	        0.1225592451	       71.6135226509	       30.2721046468	       -4.0886732680	        1.1976795265	        0.4147576386	       -0.1825750161	        6.2332440957	       -0.1331051412	        0.1085301389	       -0.5469548843	        1.8453219412	        3.1102111181	        1.4562295869	        6.2850034664	       -0.0825270159	        0.2665231579	       -0.5205436001	
        1.8700000000	      -16.4281885347	       66.8767485365	       37.4102989266	      -12.1138483113	       21.0731145052	      -27.2698730446	       87.0690314383	       24.3703061844	       -7.5583906320	       27.2053267754	        4.1971124333	        0.0525707559	        0.2351813424	     -103.1232752507	      -66.2680580509	      -10.5478067492	      137.6702363953	      -95.4373404412	        8.3005712114	        0.0908012348	       93.9340719317	       41.4748938325	      -10.7522025500	        1.3656125756	       -0.5540158777	       -1.0909180131	        7.6581145707	       -0.1889500430	        0.0480159984	       -0.7009020691	        3.3747253246	        4.8655573169	        2.4883260043	        7.8339223123	       -0.0811019691	        0.4006300003	       -0.6414246313	
